<svg width="143" height="50" viewBox="0 0 143 50" fill="none" xmlns="http://www.w3.org/2000/svg">
<path fill-rule="evenodd" clip-rule="evenodd" d="M39.3267 27.5495C38.6434 26.9128 38.2134 26.0061 38.2134 24.9995C38.2134 23.9928 38.6434 23.0861 39.3267 22.4495C39.5101 22.2761 39.7167 22.1261 39.9334 21.9995C40.6167 21.3628 41.0467 20.4561 41.0467 19.4495C41.0467 17.5295 39.4867 15.9695 37.5634 15.9695C35.6401 15.9695 34.0801 17.5261 34.0801 19.4495C34.0801 20.4561 34.5101 21.3628 35.1934 21.9995C35.4134 22.1261 35.6167 22.2795 35.8001 22.4495C36.4867 23.0861 36.9134 23.9928 36.9134 24.9995C36.9134 26.0061 36.4834 26.9162 35.8001 27.5495C35.6167 27.7228 35.4134 27.8728 35.1934 27.9995C34.5067 28.6361 34.0801 29.5428 34.0801 30.5495C34.0801 32.4695 35.6401 34.0295 37.5634 34.0295C39.4867 34.0295 41.0467 32.4728 41.0467 30.5495C41.0467 29.5428 40.6167 28.6361 39.9334 27.9995C39.7134 27.8728 39.5101 27.7195 39.3267 27.5495Z" fill="#5A03EE"/>
<path fill-rule="evenodd" clip-rule="evenodd" d="M25.3157 11.7171C26.0024 12.3537 26.429 13.2604 26.429 14.2671C26.429 15.2737 25.999 16.1804 25.3157 16.8171C25.1324 16.9871 24.9257 17.1404 24.709 17.2671C24.0257 17.9037 23.5957 18.8104 23.5957 19.8171C23.5957 21.7371 25.1557 23.2971 27.079 23.2971C29.0024 23.2971 30.5624 21.7404 30.5624 19.8171C30.5624 18.8104 30.1324 17.9037 29.449 17.2671C29.229 17.1371 29.0257 16.9871 28.8424 16.8171C28.1557 16.1804 27.729 15.2737 27.729 14.2671C27.729 13.2604 28.159 12.3537 28.8424 11.7171C29.0257 11.5471 29.229 11.3937 29.449 11.2671C30.1357 10.6304 30.5624 9.72373 30.5624 8.71706C30.5624 6.79706 29.0024 5.23706 27.079 5.23706C25.1557 5.23706 23.5957 6.79373 23.5957 8.71706C23.5957 9.72373 24.0257 10.6304 24.709 11.2671C24.929 11.3971 25.1324 11.5471 25.3157 11.7171Z" fill="#004BEE"/>
<path fill-rule="evenodd" clip-rule="evenodd" d="M18.356 27.5495C17.6727 26.9128 17.2427 26.0061 17.2427 24.9995C17.2427 23.9928 17.6727 23.0861 18.356 22.4495C18.5427 22.2761 18.746 22.1261 18.9627 21.9995C19.646 21.3628 20.076 20.4561 20.076 19.4495C20.076 17.5295 18.516 15.9695 16.5927 15.9695C14.6694 15.9695 13.1094 17.5261 13.1094 19.4495C13.1094 20.4561 13.5394 21.3628 14.2227 21.9995C14.4427 22.1261 14.646 22.2795 14.8294 22.4495C15.516 23.0861 15.9427 23.9928 15.9427 24.9995C15.9427 26.0061 15.5127 26.9162 14.8294 27.5495C14.646 27.7228 14.4394 27.8728 14.2227 27.9995C13.536 28.6361 13.1094 29.5428 13.1094 30.5495C13.1094 32.4695 14.6694 34.0295 16.5927 34.0295C18.516 34.0295 20.076 32.4728 20.076 30.5495C20.076 29.5428 19.646 28.6361 18.9627 27.9995C18.7427 27.8728 18.5394 27.7195 18.356 27.5495Z" fill="#5A03EE"/>
<path fill-rule="evenodd" clip-rule="evenodd" d="M28.8424 38.2834C28.1557 37.6467 27.729 36.74 27.729 35.7334C27.729 34.7267 28.159 33.82 28.8424 33.1834C29.0257 33.0134 29.229 32.86 29.449 32.7334C30.1324 32.0967 30.5624 31.19 30.5624 30.1834C30.5624 28.2634 29.0024 26.7034 27.079 26.7034C25.1557 26.7034 23.5957 28.26 23.5957 30.1834C23.5957 31.19 24.0257 32.0967 24.709 32.7334C24.929 32.86 25.1324 33.0134 25.3157 33.1834C26.0024 33.82 26.429 34.7267 26.429 35.7334C26.429 36.74 25.999 37.6467 25.3157 38.2834C25.1324 38.4534 24.9257 38.6067 24.709 38.7334C24.0224 39.37 23.5957 40.2767 23.5957 41.2834C23.5957 43.2034 25.1557 44.7634 27.079 44.7634C29.0024 44.7634 30.5624 43.2067 30.5624 41.2834C30.5624 40.2767 30.1324 39.37 29.449 38.7334C29.229 38.6067 29.0257 38.4534 28.8424 38.2834Z" fill="#004BEE"/>
<path fill-rule="evenodd" clip-rule="evenodd" d="M6.25677 21.5208C8.1801 21.5208 9.7401 23.0774 9.7401 25.0008C9.7401 26.9241 8.1801 28.4808 6.25677 28.4808C4.33344 28.4808 2.77344 26.9241 2.77344 25.0008C2.77344 23.0774 4.33344 21.5208 6.25677 21.5208Z" fill="#008AED"/>
<path fill-rule="evenodd" clip-rule="evenodd" d="M47.9033 21.5208C49.8266 21.5208 51.3866 23.0774 51.3866 25.0008C51.3866 26.9241 49.8266 28.4808 47.9033 28.4808C45.9799 28.4808 44.4199 26.9241 44.4199 25.0008C44.4199 23.0774 45.9799 21.5208 47.9033 21.5208Z" fill="#008AED"/>
<path d="M76.6865 34.6395H73.1065V28.4029H67.8031V34.6395H64.2031V19.7029H67.8031V25.6329H73.1065V19.7029H76.6865V34.6395Z" fill="#424242"/>
<path d="M82.8029 34.6395H79.2129V19.7029H82.8029V34.6395Z" fill="#424242"/>
<path d="M88.9027 29.57V34.6366H85.3027V19.7H91.2627C92.4061 19.7 93.4161 19.91 94.2927 20.33C95.1727 20.75 95.8527 21.35 96.3327 22.1266C96.8161 22.9033 97.0561 23.7833 97.0561 24.7666C97.0561 26.2233 96.5361 27.3866 95.4927 28.26C94.4494 29.1333 93.0194 29.5666 91.1994 29.5666H88.9027V29.57ZM88.9027 26.79H91.2627C91.9594 26.79 92.4927 26.6166 92.8594 26.2666C93.2261 25.9166 93.4094 25.4266 93.4094 24.79C93.4094 24.0933 93.2227 23.5366 92.8461 23.1166C92.4694 22.7 91.9561 22.4866 91.3061 22.48H88.9061V26.7866L88.9027 26.79Z" fill="#424242"/>
<path d="M116.621 27.6537C116.621 29.117 116.374 30.3937 115.881 31.4837C115.387 32.5737 114.691 33.407 113.787 33.9803C112.884 34.5537 111.831 34.8403 110.627 34.8403C109.424 34.8403 108.407 34.5503 107.497 33.9737C106.587 33.397 105.881 32.5703 105.381 31.5003C104.877 30.4303 104.621 29.1903 104.607 27.7803V26.7037C104.607 25.267 104.857 24.0003 105.357 22.897C105.857 21.797 106.564 20.9537 107.474 20.3703C108.387 19.787 109.431 19.4937 110.607 19.4937C111.784 19.4937 112.857 19.7837 113.771 20.3603C114.684 20.937 115.387 21.777 115.877 22.8737C116.371 23.9703 116.617 25.247 116.617 26.7037V27.647L116.621 27.6537ZM114.661 26.6903C114.661 24.9203 114.304 23.5603 113.594 22.6137C112.884 21.667 111.887 21.1937 110.607 21.1937C109.327 21.1937 108.384 21.667 107.667 22.6137C106.954 23.5603 106.584 24.877 106.564 26.557V27.6537C106.564 29.3703 106.924 30.7203 107.647 31.7003C108.367 32.6803 109.361 33.1737 110.627 33.1737C111.894 33.1737 112.884 32.7103 113.581 31.7837C114.277 30.857 114.637 29.5303 114.657 27.797V26.6903H114.661Z" fill="#008AED"/>
<path d="M121.071 23.5405L121.131 24.9372C121.977 23.8705 123.087 23.3372 124.454 23.3372C126.801 23.3372 127.984 24.6605 128.004 27.3072V34.6405H126.107V27.2972C126.101 26.4972 125.917 25.9072 125.557 25.5238C125.197 25.1405 124.641 24.9505 123.881 24.9505C123.264 24.9505 122.724 25.1138 122.261 25.4438C121.794 25.7705 121.434 26.2038 121.174 26.7372V34.6472H119.277V23.5472H121.071V23.5405Z" fill="#008AED"/>
<path d="M135.473 34.8428C133.969 34.8428 132.743 34.3494 131.799 33.3594C130.856 32.3694 130.383 31.0494 130.383 29.3961V29.0461C130.383 27.9461 130.593 26.9628 131.013 26.0961C131.433 25.2328 132.023 24.5528 132.776 24.0661C133.533 23.5761 134.349 23.3328 135.233 23.3328C136.676 23.3328 137.796 23.8094 138.596 24.7594C139.396 25.7094 139.796 27.0694 139.796 28.8428V29.6328H132.276C132.303 30.7261 132.623 31.6094 133.236 32.2861C133.849 32.9594 134.626 33.2961 135.569 33.2961C136.239 33.2961 136.806 33.1594 137.273 32.8861C137.736 32.6128 138.146 32.2494 138.493 31.7994L139.653 32.7028C138.723 34.1328 137.329 34.8461 135.469 34.8461L135.473 34.8428ZM135.236 24.8928C134.469 24.8928 133.826 25.1728 133.306 25.7294C132.786 26.2861 132.466 27.0694 132.343 28.0728H137.903V27.9294C137.849 26.9661 137.589 26.2194 137.123 25.6894C136.656 25.1594 136.029 24.8961 135.236 24.8961V24.8928Z" fill="#008AED"/>
</svg>
